<svg width="10016" height="2475" viewBox="0 0 10016 2475" fill="none" xmlns="http://www.w3.org/2000/svg">
<g clip-path="url(#clip0_176_8)">
<path d="M292.353 2.92556H654.87V2463.3H292.353V2.92556Z" fill="white"/>
<path d="M2096.17 5.8511V368.617L1148.95 368.617V5.85106L2096.17 5.8511Z" fill="white"/>
<path d="M6621.79 5.8511V368.617L5674.56 368.617V5.85106L6621.79 5.8511Z" fill="white"/>
<path d="M7753.19 5.8511V368.617L6805.97 368.617V5.85106L7753.19 5.8511Z" fill="white"/>
<path d="M947.222 5.8511V368.617L0 368.617L2.10638e-05 5.85106L947.222 5.8511Z" fill="white"/>
<path d="M9361.13 3.11696e-05H9723.65V2466.22H9361.13V3.11696e-05Z" fill="white"/>
<path d="M10016 3.11696e-05V362.766L9068.78 362.766V0L10016 3.11696e-05Z" fill="white"/>
<path d="M3210.03 5.8511V368.617L2286.2 368.617V5.85105L3210.03 5.8511Z" fill="white"/>
<path d="M3210.03 1255.05V1628.06L2280.35 1255.05V892.287L3210.03 1255.05Z" fill="white"/>
<path d="M3210.03 2100.53V2463.3H2286.2V2100.53H3210.03Z" fill="white"/>
<path d="M2096.17 2103.46V2466.22H1148.95V2103.46H2096.17Z" fill="white"/>
<path d="M8884.6 3.11696e-05V362.766L7937.37 362.766V0L8884.6 3.11696e-05Z" fill="white"/>
<path d="M8884.6 2103.46V2466.22H7937.37V2103.46H8884.6Z" fill="white"/>
<path d="M2104.94 1053.19V1415.96H1157.72V1053.19H2104.94Z" fill="white"/>
<path d="M5490.38 5.8511V368.617L4543.16 368.617V5.85106L5490.38 5.8511Z" fill="white"/>
<path d="M5490.38 2103.46V2466.22H4543.16V2103.46H5490.38Z" fill="white"/>
<path d="M5499.15 1053.19V1415.96H4551.93V1053.19H5499.15Z" fill="white"/>
<path d="M6621.79 1053.19V1415.96H5674.56V1053.19H6621.79Z" fill="white"/>
<path d="M6623.1 1762.96L6307.07 1940.7L6010.15 1412.01L6326.17 1234.28L6623.1 1762.96Z" fill="white"/>
<path d="M1148.95 5.85106L1511.46 5.8511V2466.22H1148.95V5.85106Z" fill="white"/>
<path d="M2280.35 5.8511H2642.87V1053.19H2280.35V5.8511Z" fill="white"/>
<path d="M2847.51 1418.88H3210.03V2466.22H2847.51V1418.88Z" fill="white"/>
<path d="M4347.28 5.8511V368.617L3423.45 368.617V5.85105L4347.28 5.8511Z" fill="white"/>
<path d="M4347.28 1255.05V1628.06L3417.6 1255.05V892.287L4347.28 1255.05Z" fill="white"/>
<path d="M7753.19 1278.46V1651.46L6823.51 1278.46V915.691L7753.19 1278.46Z" fill="white"/>
<path d="M3417.6 5.8511H3780.12V1053.19H3417.6V5.8511Z" fill="white"/>
<path d="M3984.77 1418.88H4347.28V2466.22H3984.77V1418.88Z" fill="white"/>
<path d="M4341.44 2100.53V2463.3H3417.6V2100.53H4341.44Z" fill="white"/>
<path d="M6259.27 5.8511H6621.79V1415.96H6259.27V5.8511Z" fill="white"/>
<path d="M6259.27 1761.17H6621.79V2475H6259.27V1761.17Z" fill="white"/>
<path d="M4543.16 5.85106L4905.68 5.8511V2466.22H4543.16V5.85106Z" fill="white"/>
<path d="M5674.56 5.85106L6037.08 5.8511V2466.22H5674.56V5.85106Z" fill="white"/>
<path d="M6805.97 5.85106L7168.49 5.8511V2466.22H6805.97V5.85106Z" fill="white"/>
<path d="M7390.67 5.8511H7753.19V2466.22H7390.67V5.8511Z" fill="white"/>
<path d="M7937.37 5.8511H8299.89V2466.22H7937.37V5.8511Z" fill="white"/>
</g>
<defs>
<clipPath id="clip0_176_8">
<rect width="10016" height="2475" fill="white"/>
</clipPath>
</defs>
</svg>
